<?xml version="1.0" standalone="no"?>
<!DOCTYPE svg PUBLIC "-//W3C//DTD SVG 20010904//EN"
 "http://www.w3.org/TR/2001/REC-SVG-20010904/DTD/svg10.dtd">
<svg version="1.0" xmlns="http://www.w3.org/2000/svg"
 width="260.000000pt" height="260.000000pt" viewBox="0 0 260.000000 260.000000"
 preserveAspectRatio="xMidYMid meet">
<metadata>
Created by potrace 1.14, written by Peter Selinger 2001-2017
</metadata>
<g transform="translate(0.000000,260.000000) scale(0.100000,-0.100000)"
fill="#000000" stroke="none">
<path d="M1258 2585 c4 -9 5 -38 2 -65 -6 -44 -4 -50 12 -50 16 0 18 9 18 65
0 59 -2 65 -20 65 -16 0 -19 -4 -12 -15z"/>
<path d="M1335 2535 c0 -52 3 -65 15 -65 13 0 16 13 16 65 1 53 -2 65 -15 65
-13 0 -16 -12 -16 -65z"/>
<path d="M1118 2578 c7 -7 12 -22 12 -34 0 -13 5 -26 11 -30 6 -3 9 -17 6 -30
-3 -20 -1 -22 14 -13 25 13 24 34 -3 53 -12 9 -17 16 -10 16 19 0 14 28 -7 40
-26 14 -38 13 -23 -2z"/>
<path d="M1454 2576 c-3 -9 -2 -35 4 -58 6 -23 9 -45 7 -49 -3 -4 4 -9 15 -12
23 -6 23 -5 9 65 -13 60 -25 80 -35 54z"/>
<path d="M1075 2533 c7 -27 11 -56 9 -66 -2 -14 1 -17 12 -13 9 3 21 6 27 6 9
0 9 2 1 8 -9 6 -20 54 -23 105 -1 4 -9 7 -19 7 -18 0 -18 -4 -7 -47z"/>
<path d="M1010 2559 c0 -5 5 -7 10 -4 6 3 10 8 10 11 0 2 -4 4 -10 4 -5 0 -10
-5 -10 -11z"/>
<path d="M1546 2524 c-3 -26 -11 -53 -16 -59 -8 -9 -4 -14 12 -17 18 -3 23 0
24 16 0 12 6 40 11 64 10 37 9 42 -7 42 -13 0 -19 -11 -24 -46z"/>
<path d="M930 2544 c0 -15 24 -90 33 -101 5 -7 19 -13 31 -13 18 1 19 2 4 10
-9 6 -19 25 -23 43 -12 57 -16 67 -31 67 -8 0 -14 -3 -14 -6z"/>
<path d="M1674 2542 c4 -6 -3 -35 -14 -64 -11 -29 -20 -54 -20 -54 0 -1 6 -4
14 -7 11 -4 20 11 35 54 l20 59 -21 11 c-13 7 -18 7 -14 1z"/>
<path d="M829 2510 c-15 -9 -14 -15 4 -68 17 -48 25 -58 39 -54 12 3 15 8 10
16 -14 18 -41 104 -34 110 8 9 -1 7 -19 -4z"/>
<path d="M1400 2485 c-7 -9 -8 -15 -2 -15 5 0 12 7 16 15 3 8 4 15 2 15 -2 0
-9 -7 -16 -15z"/>
<path d="M1795 2491 c2 -4 -9 -30 -24 -58 -25 -46 -27 -52 -11 -56 13 -3 22 7
36 41 10 24 24 50 31 57 10 10 7 14 -12 17 -13 3 -23 2 -20 -1z"/>
<path d="M756 2471 c-3 -5 1 -11 9 -14 9 -4 12 -1 8 9 -6 16 -10 17 -17 5z"/>
<path d="M1857 2459 c4 -13 8 -18 11 -10 2 7 -1 18 -6 23 -8 8 -9 4 -5 -13z"/>
<path d="M1601 2453 c-7 -8 -10 -17 -7 -20 9 -9 29 13 25 25 -2 6 -10 3 -18
-5z"/>
<path d="M700 2441 c-15 -29 -12 -45 11 -75 20 -25 59 -36 59 -16 0 6 -4 10
-10 10 -15 0 -42 48 -42 75 0 30 -4 31 -18 6z"/>
<path d="M914 2426 c-9 -20 -9 -23 2 -19 8 3 14 14 14 24 0 25 -3 24 -16 -5z"/>
<path d="M1820 2430 c-11 -7 -12 -12 -4 -20 8 -8 13 -6 17 9 3 12 4 21 4 21
-1 0 -9 -5 -17 -10z"/>
<path d="M1912 2427 c-7 -8 -9 -17 -5 -21 4 -3 8 -21 10 -39 3 -27 5 -43 13
-77 0 -3 6 3 14 12 10 13 10 29 2 72 -13 63 -19 72 -34 53z"/>
<path d="M1711 2416 c-7 -8 -8 -17 -3 -20 6 -3 13 1 16 10 9 23 2 28 -13 10z"/>
<path d="M631 2411 c-10 -6 -9 -10 5 -15 20 -8 25 -4 16 11 -4 7 -13 9 -21 4z"/>
<path d="M595 2388 c-4 -9 7 -35 24 -59 16 -24 27 -48 24 -52 -3 -5 4 -4 16 2
20 11 20 12 -16 64 -19 29 -37 54 -39 56 -2 2 -6 -3 -9 -11z"/>
<path d="M803 2381 c0 -11 5 -18 9 -15 4 3 5 11 1 19 -7 21 -12 19 -10 -4z"/>
<path d="M1990 2390 c0 -5 5 -10 11 -10 5 0 7 5 4 10 -3 6 -8 10 -11 10 -2 0
-4 -4 -4 -10z"/>
<path d="M1825 2370 c-3 -5 -13 -7 -23 -4 -14 5 -15 4 -2 -5 20 -14 27 -14 34
4 6 17 0 20 -9 5z"/>
<path d="M556 2361 c-3 -5 0 -13 7 -19 10 -8 13 -6 13 9 0 20 -11 25 -20 10z"/>
<path d="M1969 2353 c-13 -16 -12 -17 4 -4 9 7 17 15 17 17 0 8 -8 3 -21 -13z"/>
<path d="M2007 2309 c-21 -28 -37 -52 -35 -53 2 -1 12 -8 22 -16 12 -9 17 -10
12 -3 -4 8 7 32 28 59 28 36 37 43 42 30 7 -18 -13 -49 -26 -41 -5 3 -6 -4 -3
-15 3 -12 -1 -22 -11 -26 -22 -8 -20 -24 2 -24 28 0 43 20 31 42 -8 15 -6 18
11 18 27 0 26 31 -3 58 -13 12 -25 22 -28 21 -2 0 -21 -23 -42 -50z"/>
<path d="M1855 2340 c-3 -5 -1 -10 4 -10 6 0 11 5 11 10 0 6 -2 10 -4 10 -3 0
-8 -4 -11 -10z"/>
<path d="M497 2323 c-4 -3 10 -27 30 -52 20 -25 38 -48 40 -50 2 -3 8 0 14 6
9 9 2 24 -26 57 -37 46 -46 52 -58 39z"/>
<path d="M448 2277 c-15 -10 -13 -16 22 -58 22 -25 36 -50 32 -54 -4 -4 3 -2
15 6 l22 13 -20 22 c-12 13 -18 28 -14 35 5 7 4 10 -2 6 -12 -8 -46 27 -36 36
10 10 0 7 -19 -6z"/>
<path d="M2105 2225 c-35 -37 -38 -44 -25 -53 12 -7 19 -5 28 9 15 23 29 25
34 4 2 -13 5 -12 15 4 11 17 10 19 -2 15 -19 -8 -19 10 0 26 18 15 20 41 3 39
-7 -1 -31 -21 -53 -44z"/>
<path d="M2193 2212 c-1 -22 0 -24 9 -8 6 10 6 22 2 26 -5 5 -10 -3 -11 -18z"/>
<path d="M386 2212 c-2 -4 4 -8 14 -8 10 0 16 4 14 8 -3 4 -9 8 -14 8 -5 0
-11 -4 -14 -8z"/>
<path d="M350 2180 c-13 -25 -7 -49 21 -78 23 -26 47 -28 75 -7 19 14 19 14
-2 9 -31 -8 -87 42 -81 73 5 28 1 29 -13 3z"/>
<path d="M430 2165 c-10 -12 -10 -15 0 -15 7 0 18 -7 25 -16 10 -15 12 -15 18
-1 3 8 -2 22 -12 31 -16 15 -19 15 -31 1z"/>
<path d="M2207 2144 c-19 -19 -41 -34 -46 -34 -8 0 -7 -6 1 -19 11 -18 14 -17
52 20 23 21 44 39 49 39 12 0 8 18 -6 23 -8 3 -30 -10 -50 -29z"/>
<path d="M2110 2144 c0 -1 6 -7 14 -13 10 -9 15 -8 19 3 4 10 0 14 -14 13 -10
-1 -19 -2 -19 -3z"/>
<path d="M2270 2126 c-8 -8 -27 -26 -42 -40 -31 -28 -36 -51 -13 -60 8 -3 14
-2 13 2 -4 19 23 64 36 59 19 -8 35 14 27 36 -6 15 -8 16 -21 3z"/>
<path d="M1190 2123 c-139 -17 -251 -87 -292 -181 -20 -45 -29 -148 -18 -212
4 -22 -1 -62 -13 -104 -25 -89 -19 -142 23 -209 l33 -52 -36 -110 c-20 -60
-41 -130 -48 -155 -11 -43 -12 -44 -21 -20 -16 38 -12 189 5 237 15 39 14 44
-10 105 -15 36 -28 92 -31 130 -4 57 -1 73 17 104 19 32 20 35 4 23 -32 -25
-39 -33 -81 -95 -88 -129 -125 -249 -125 -404 1 -432 383 -759 813 -697 144
21 282 95 395 211 265 272 262 717 -7 986 l-61 62 -18 -37 c-18 -36 -17 -38
12 -163 55 -234 70 -320 67 -374 -3 -51 -6 -44 -92 213 l-88 265 32 68 c81
168 20 307 -164 375 -76 28 -214 44 -296 34z m490 -793 c29 -63 66 -144 82
-179 32 -70 31 -90 -5 -171 l-20 -45 -18 56 c-9 31 -20 69 -22 85 -3 16 -24
93 -46 172 -40 140 -48 182 -34 195 8 9 4 18 63 -113z m-700 -25 c10 -12 3
-50 -36 -197 -26 -101 -50 -187 -54 -191 -8 -9 -60 91 -60 116 0 9 18 54 40
101 22 47 49 108 61 136 23 54 30 58 49 35z m668 -165 c28 -74 58 -152 67
-174 16 -38 16 -39 -11 -78 -33 -47 -124 -130 -139 -125 -5 2 -10 40 -11 85
-1 77 2 87 28 83 10 -1 48 130 48 165 0 36 -24 72 -55 84 -23 9 -23 9 -6 64 8
30 19 50 22 43 4 -7 29 -73 57 -147z m-579 82 l29 -18 -27 -15 c-20 -12 -30
-29 -39 -68 -21 -90 -16 -126 18 -155 29 -23 30 -29 25 -73 -11 -94 -12 -112
-4 -108 4 3 13 39 20 80 8 53 16 75 26 75 9 0 12 -7 9 -17 -6 -20 -15 -99 -18
-155 -1 -22 -7 -38 -14 -38 -36 0 -194 136 -194 167 0 7 10 38 22 70 12 32 23
60 23 63 1 3 6 16 12 30 6 14 23 60 39 103 16 42 32 77 36 77 4 0 21 -8 37
-18z m362 -377 c-1 -105 12 -98 27 14 6 40 13 75 16 78 16 16 23 -19 24 -111
l0 -105 -51 -17 c-64 -21 -178 -26 -248 -10 l-54 12 4 109 c2 61 5 114 8 118
3 5 66 7 140 5 l136 -3 -2 -90z"/>
<path d="M280 2095 c-10 -12 -10 -15 0 -15 7 0 32 -16 55 -35 32 -26 44 -31
48 -21 4 9 -11 29 -38 50 -50 41 -49 41 -65 21z"/>
<path d="M245 2050 c-3 -5 1 -10 10 -10 9 0 13 5 10 10 -3 6 -8 10 -10 10 -2
0 -7 -4 -10 -10z"/>
<path d="M2276 2035 c-28 -26 -32 -51 -15 -75 9 -13 10 -13 6 1 -8 24 43 69
78 69 35 0 23 16 -17 24 -19 3 -34 -2 -52 -19z"/>
<path d="M216 2003 c-4 -10 -3 -19 3 -21 5 -2 28 -16 50 -32 31 -23 42 -26 50
-16 8 10 5 16 -14 26 -25 14 -33 30 -15 30 15 0 12 17 -4 23 -10 4 -13 1 -9
-9 7 -19 -16 -18 -37 1 -16 14 -18 14 -24 -2z"/>
<path d="M2371 1977 c-13 -21 -12 -21 5 -5 10 10 16 20 13 22 -3 3 -11 -5 -18
-17z"/>
<path d="M2295 1950 c-11 -18 5 -30 25 -18 10 7 16 16 14 20 -7 11 -32 10 -39
-2z"/>
<path d="M86 1694 c-19 -18 -20 -38 -6 -65 14 -25 75 -27 84 -3 5 14 4 15 -8
5 -35 -29 -93 10 -70 47 16 25 57 22 69 -5 5 -13 13 -23 18 -23 10 0 -12 42
-27 52 -18 12 -44 9 -60 -8z"/>
<path d="M2446 1694 c-46 -45 16 -117 63 -73 12 11 21 28 21 39 0 24 -26 50
-50 50 -10 0 -26 -7 -34 -16z m68 -16 c16 -26 -4 -53 -40 -53 -23 0 -30 5 -32
23 -7 47 47 69 72 30z"/>
<path d="M2467 1674 c-14 -14 -7 -35 11 -32 9 2 17 10 17 17 0 16 -18 25 -28
15z"/>
<path d="M105 1671 c-8 -15 3 -31 21 -31 9 0 14 7 12 17 -4 20 -24 28 -33 14z"/>
<path d="M3 1326 c0 -7 25 -11 64 -11 40 0 63 4 63 11 0 7 -23 11 -63 11 -39
0 -64 -5 -64 -11z"/>
<path d="M2550 1328 c0 -4 -18 -18 -40 -30 -40 -23 -52 -45 -25 -45 8 0 12 4
9 8 -2 4 18 20 46 36 53 30 63 43 30 40 -11 -1 -20 -5 -20 -9z"/>
<path d="M10 1283 c0 -17 35 -43 59 -43 32 0 61 18 61 37 0 15 -1 15 -13 -1
-18 -24 -76 -25 -93 -1 -8 11 -14 14 -14 8z"/>
<path d="M2578 1253 c7 -3 16 -2 19 1 4 3 -2 6 -13 5 -11 0 -14 -3 -6 -6z"/>
<path d="M129 1206 c-2 -3 -30 -6 -62 -7 -35 -2 -57 -7 -57 -14 0 -8 16 -9 52
-5 29 4 58 5 64 3 6 -2 11 3 11 12 0 16 -1 17 -8 11z"/>
<path d="M2572 1196 c7 -8 15 -12 17 -11 5 6 -10 25 -20 25 -5 0 -4 -6 3 -14z"/>
<path d="M2458 1152 c-4 -14 1 -17 20 -16 14 0 42 -2 63 -6 26 -5 39 -3 43 5
3 8 -12 12 -47 14 -28 1 -56 6 -63 11 -8 7 -13 5 -16 -8z"/>
<path d="M30 1130 c-8 -5 -12 -12 -9 -15 4 -3 12 1 19 10 14 17 11 19 -10 5z"/>
<path d="M80 1110 c-16 -38 -27 -45 -46 -29 -12 10 -13 9 -8 -5 11 -30 49 -19
67 20 14 28 22 35 37 31 11 -3 18 -1 14 4 -3 5 -16 9 -28 9 -17 0 -27 -9 -36
-30z"/>
<path d="M125 1080 c-3 -6 1 -7 9 -4 18 7 21 14 7 14 -6 0 -13 -4 -16 -10z"/>
<path d="M145 1040 c3 -5 8 -10 11 -10 2 0 4 5 4 10 0 6 -5 10 -11 10 -5 0 -7
-4 -4 -10z"/>
<path d="M2557 1029 c-5 -19 -11 -21 -44 -15 -21 3 -48 9 -60 12 -13 4 -23 2
-23 -4 0 -5 15 -13 33 -16 17 -3 42 -8 54 -10 25 -5 53 17 53 40 0 21 -7 17
-13 -7z"/>
<path d="M40 1012 c0 -4 32 -17 70 -29 60 -17 70 -18 70 -5 0 8 -3 13 -6 9 -3
-3 -22 0 -42 7 -59 20 -92 27 -92 18z"/>
<path d="M50 950 c0 -6 7 -10 15 -10 19 0 19 6 0 14 -8 3 -15 1 -15 -4z"/>
<path d="M2470 941 c-39 -4 -60 -9 -52 -14 6 -5 12 -5 12 0 0 4 5 1 10 -7 5
-8 10 -10 10 -5 0 6 9 11 20 12 12 1 18 -3 14 -9 -4 -6 2 -6 15 1 12 7 25 9
30 7 5 -3 11 1 15 9 3 8 2 14 -2 13 -4 -1 -36 -4 -72 -7z"/>
<path d="M128 911 c-26 -10 -50 -16 -54 -12 -4 3 -4 -1 -2 -9 6 -16 7 -16 81
9 26 9 45 20 41 24 -10 9 -12 9 -66 -12z"/>
<path d="M153 847 c-29 -12 -53 -28 -53 -35 0 -8 5 -9 18 -3 9 5 36 18 59 28
23 10 43 21 43 26 0 10 -9 8 -67 -16z"/>
<path d="M2497 859 c7 -7 15 -10 18 -7 3 3 -2 9 -12 12 -14 6 -15 5 -6 -5z"/>
<path d="M2374 839 c-4 -7 -1 -10 7 -7 16 6 52 -10 45 -20 -2 -4 14 -8 35 -9
24 -2 38 1 34 7 -3 6 -19 10 -35 10 -15 0 -30 7 -34 15 -6 18 -42 20 -52 4z"/>
<path d="M212 810 c-11 -17 -16 -19 -35 -9 -20 11 -21 11 -8 -4 7 -10 19 -17
26 -17 16 0 38 26 33 40 -2 6 -9 1 -16 -10z"/>
<path d="M2356 801 c-3 -4 18 -19 47 -32 29 -13 55 -28 58 -32 3 -5 9 1 12 12
3 12 1 19 -4 16 -4 -3 -31 6 -58 20 -28 13 -52 21 -55 16z"/>
<path d="M210 745 c-19 -13 -41 -24 -47 -24 -7 -1 -13 -5 -13 -11 0 -15 10
-12 67 19 29 15 50 31 46 35 -9 9 -14 7 -53 -19z"/>
<path d="M2329 742 c-11 -14 -11 -15 0 -5 7 6 20 9 27 6 8 -3 14 -3 14 0 0 14
-30 14 -41 -1z"/>
<path d="M2310 716 c0 -3 22 -17 50 -33 27 -15 50 -32 50 -38 0 -5 4 -3 10 5
7 11 -3 21 -42 42 -49 27 -68 33 -68 24z"/>
<path d="M2294 689 c-3 -6 -1 -16 4 -21 8 -8 11 -5 9 11 -1 24 -3 25 -13 10z"/>
<path d="M300 673 c0 -10 -79 -59 -90 -56 -5 2 -7 -4 -4 -12 7 -16 13 -14 61
21 17 13 36 24 42 24 14 0 14 17 1 25 -5 3 -10 2 -10 -2z"/>
<path d="M177 654 c2 -7 11 -10 19 -7 19 7 18 10 -5 16 -13 3 -18 1 -14 -9z"/>
<path d="M2254 628 c-4 -7 -3 -8 4 -4 17 11 55 -13 48 -30 -3 -8 -2 -12 3 -9
5 3 21 0 36 -7 20 -9 28 -9 38 1 9 10 9 12 -3 10 -25 -5 -59 11 -70 32 -12 21
-45 26 -56 7z"/>
<path d="M336 608 c-2 -7 -11 -35 -20 -62 -18 -57 -20 -74 -7 -60 17 17 50
124 40 130 -5 3 -11 -1 -13 -8z"/>
<path d="M2235 599 c-4 -5 -5 -11 -4 -12 2 -1 25 -17 51 -35 25 -17 49 -32 52
-32 16 0 2 17 -31 40 -20 14 -42 31 -49 38 -9 8 -15 9 -19 1z"/>
<path d="M245 540 c3 -5 8 -10 11 -10 2 0 4 5 4 10 0 6 -5 10 -11 10 -5 0 -7
-4 -4 -10z"/>
<path d="M2159 503 c-9 -10 -8 -13 2 -13 8 0 31 -16 52 -36 21 -20 41 -33 44
-30 4 4 -14 26 -40 50 -38 35 -49 40 -58 29z"/>
<path d="M2220 501 c0 -5 5 -13 10 -16 6 -3 10 -2 10 4 0 5 -4 13 -10 16 -5 3
-10 2 -10 -4z"/>
<path d="M2280 491 c0 -6 4 -13 10 -16 6 -3 7 1 4 9 -7 18 -14 21 -14 7z"/>
<path d="M2120 466 c0 -2 7 -7 16 -10 8 -3 12 -2 9 4 -6 10 -25 14 -25 6z"/>
<path d="M420 405 c22 -24 30 -29 30 -22 0 8 -38 47 -45 47 -5 0 2 -11 15 -25z"/>
<path d="M2075 419 c-9 -13 -11 -11 52 -43 29 -14 54 -22 57 -17 3 4 -13 17
-36 27 -22 10 -47 24 -54 31 -9 9 -15 10 -19 2z"/>
<path d="M2050 391 c0 -6 4 -13 10 -16 6 -3 7 1 4 9 -7 18 -14 21 -14 7z"/>
<path d="M560 381 c0 -4 -15 -28 -34 -52 -19 -23 -32 -47 -29 -52 3 -5 13 2
22 17 22 36 37 27 33 -23 -2 -22 1 -41 6 -41 5 0 10 6 9 13 -1 37 5 57 17 57
21 0 34 23 25 45 -7 19 -8 19 -8 -3 -1 -25 -27 -40 -43 -24 -13 13 14 56 28
44 4 -4 2 1 -5 11 -15 19 -21 21 -21 8z"/>
<path d="M2020 375 c-9 -11 -7 -21 11 -47 13 -18 27 -34 31 -36 4 -2 8 -10 8
-18 0 -8 5 -14 10 -14 18 0 10 21 -25 64 -26 33 -32 45 -23 54 7 7 9 12 6 12
-3 0 -11 -7 -18 -15z"/>
<path d="M1975 341 c-3 -5 -1 -12 5 -16 5 -3 10 1 10 9 0 18 -6 21 -15 7z"/>
<path d="M635 267 c-16 -29 -31 -55 -33 -58 -2 -4 4 -9 13 -13 9 -3 13 -2 10
4 -3 6 0 19 8 31 14 19 16 19 25 4 8 -16 10 -16 15 -1 4 9 3 15 -1 13 -8 -2
-12 7 -12 27 0 8 7 16 17 18 14 3 14 5 2 15 -11 9 -20 2 -44 -40z"/>
<path d="M1940 316 c0 -2 7 -9 15 -16 13 -11 14 -10 9 4 -5 14 -24 23 -24 12z"/>
<path d="M1900 284 c1 -21 19 -36 50 -38 18 -1 39 -11 46 -21 13 -18 14 -18
14 3 0 24 -8 29 -51 35 -15 1 -34 9 -43 16 -9 7 -16 10 -16 5z"/>
<path d="M710 265 c0 -8 2 -15 4 -15 2 0 6 7 10 15 3 8 1 15 -4 15 -6 0 -10
-7 -10 -15z"/>
<path d="M1843 249 c9 -5 17 -16 17 -22 0 -7 9 -21 21 -31 14 -12 19 -25 15
-39 -5 -21 -4 -21 9 -3 16 22 4 56 -20 56 -8 0 -14 3 -14 8 5 28 -3 42 -23 42
-21 -1 -21 -2 -5 -11z"/>
<path d="M743 234 c-5 -13 0 -27 25 -75 1 -4 -4 -14 -13 -23 -17 -16 -9 -22
11 -8 21 14 22 39 4 68 -14 20 -16 32 -8 41 7 9 7 13 -1 13 -6 0 -14 -7 -18
-16z"/>
<path d="M1795 232 c13 -9 51 -93 48 -104 -2 -5 1 -8 5 -8 18 0 21 14 7 40 -8
15 -11 30 -8 34 4 3 1 6 -5 6 -6 0 -14 9 -17 20 -3 11 -14 20 -23 20 -10 0
-13 -3 -7 -8z"/>
<path d="M845 210 c3 -5 -4 -33 -15 -62 -23 -62 -23 -58 -10 -58 5 0 12 11 16
24 4 17 11 23 22 19 15 -4 15 -3 2 6 -13 9 -13 14 2 40 15 28 15 29 -3 34 -10
3 -17 1 -14 -3z"/>
<path d="M1947 195 c3 -8 9 -12 14 -9 12 7 11 11 -5 17 -10 4 -13 1 -9 -8z"/>
<path d="M897 180 c3 -11 0 -27 -7 -35 -7 -8 -8 -15 -2 -15 21 0 34 28 22 49
-14 27 -20 27 -13 1z"/>
<path d="M1696 191 c-4 -5 -3 -11 1 -13 5 -1 15 -23 24 -47 8 -25 21 -47 27
-49 6 -2 2 22 -11 57 -22 60 -30 70 -41 52z"/>
<path d="M655 180 c-3 -5 -2 -10 4 -10 5 0 13 5 16 10 3 6 2 10 -4 10 -5 0
-13 -4 -16 -10z"/>
<path d="M944 133 c-6 -27 -13 -54 -15 -62 -2 -7 1 -15 6 -17 6 -2 11 4 12 13
1 10 8 37 16 60 13 39 13 53 -3 53 -3 0 -11 -21 -16 -47z"/>
<path d="M706 161 c-3 -5 2 -15 12 -22 15 -12 16 -12 5 2 -7 9 -10 19 -6 22 3
4 4 7 0 7 -3 0 -8 -4 -11 -9z"/>
<path d="M1011 153 c7 -12 15 -20 18 -17 3 2 -3 12 -13 22 -17 16 -18 16 -5
-5z"/>
<path d="M1593 163 c-8 -3 -9 -10 -3 -21 5 -9 14 -35 20 -58 6 -25 16 -41 25
-41 9 0 11 4 6 11 -5 6 -15 34 -23 62 -8 31 -18 49 -25 47z"/>
<path d="M1063 138 c0 -7 -3 -37 -7 -65 -6 -36 -4 -53 3 -53 6 0 11 14 11 30
0 40 13 38 29 -5 7 -19 19 -35 26 -35 11 0 10 8 -6 35 -11 19 -18 39 -15 44 3
5 -3 7 -14 4 -17 -5 -18 -2 -10 26 6 23 5 31 -4 31 -7 0 -13 -6 -13 -12z"/>
<path d="M1541 134 c0 -11 3 -14 6 -6 3 7 2 16 -1 19 -3 4 -6 -2 -5 -13z"/>
<path d="M1125 130 c-3 -6 1 -7 9 -4 18 7 21 14 7 14 -6 0 -13 -4 -16 -10z"/>
<path d="M1641 130 c0 -8 4 -22 9 -30 12 -18 12 -2 0 25 -6 13 -9 15 -9 5z"/>
<path d="M1170 115 c0 -8 2 -15 4 -15 2 0 6 7 10 15 3 8 1 15 -4 15 -6 0 -10
-7 -10 -15z"/>
<path d="M1209 83 c0 -27 -2 -56 -4 -66 -2 -9 2 -17 8 -17 8 0 13 24 15 65 1
39 -2 65 -8 65 -5 0 -10 -21 -11 -47z"/>
<path d="M1256 117 c3 -10 9 -15 12 -12 3 3 0 11 -7 18 -10 9 -11 8 -5 -6z"/>
<path d="M1487 110 c3 -10 14 -22 24 -25 33 -11 51 -35 38 -51 -10 -12 -9 -13
5 -8 29 11 19 49 -19 67 -19 9 -35 21 -35 27 0 5 -4 10 -9 10 -5 0 -7 -9 -4
-20z"/>
<path d="M1796 115 c-3 -8 -1 -15 4 -15 6 0 10 7 10 15 0 8 -2 15 -4 15 -2 0
-6 -7 -10 -15z"/>
<path d="M981 104 c0 -11 3 -14 6 -6 3 7 2 16 -1 19 -3 4 -6 -2 -5 -13z"/>
<path d="M991 56 c-7 -8 -8 -17 -3 -20 6 -3 12 3 15 14 6 24 4 25 -12 6z"/>
<path d="M1675 60 c-3 -6 1 -7 9 -4 18 7 21 14 7 14 -6 0 -13 -4 -16 -10z"/>
<path d="M1355 49 c-15 -5 -12 -7 13 -6 17 0 32 3 32 7 0 9 -21 9 -45 -1z"/>
<path d="M1496 35 c4 -8 11 -15 16 -15 6 0 5 6 -2 15 -7 8 -14 15 -16 15 -2 0
-1 -7 2 -15z"/>
</g>
</svg>
